<?xml version="1.0" encoding="UTF-8"?><svg id="a" xmlns="http://www.w3.org/2000/svg" viewBox="0 0 864 864"><defs><style>.b{fill:#fff;}.c{fill:#263d3d;}</style></defs><path class="b" d="M0,864V0H864V864H0ZM429.65,226.97c-6.42,1.15-13.03,1.68-19.24,3.55-30.45,9.16-49.25,40.41-43.3,71.4,4.61,24.03,25.24,45.15,48.88,49.69,1.76,.34,4.43-.64,5.75-1.95,22.86-22.63,45.54-45.45,68.41-68.06,2.07-2.04,2.29-3.82,1.63-6.16-7.8-27.43-32.82-48.76-62.13-48.47Zm63.58,184.68v-108.67c-36.03,36.33-72.14,72.74-107.77,108.67h107.77Zm-10.85,52.42c.54,.72,.99,2.01,1.84,2.36,6.1,2.51,6.82,3.28,6.83,9.2,.04,20.53,.04,41.06,0,61.59,0,5.72-1.13,7.02-6.77,8.76-.58,.18-.97,.99-1.44,1.51,.49,.36,.97,1.03,1.46,1.04,9.94,.06,19.88,.05,29.82,.05,.17-.41,.35-.82,.52-1.24-1-.49-1.97-1.26-3.02-1.41-3.97-.57-6.8-2.63-6.91-6.64-.27-10.08-.09-20.17-.09-30.17,4.74-1.14,7.45,.8,9.7,4.45,5.27,8.57,10.8,16.99,16.24,25.46,2.71,4.22,5.97,8.11,11.08,9.03,5.45,.99,11.06,1.11,16.61,1.6,.25-.51,.51-1.02,.76-1.53-.88-.75-1.71-1.58-2.66-2.23-3.16-2.19-7.19-3.68-9.39-6.57-7.83-10.32-15.04-21.11-22.33-31.51,2.77-1.19,5.41-2.07,7.82-3.39,9.02-4.94,14.01-14.35,12.52-23.27-1.52-9.1-8.72-16.21-19.74-16.87-14.09-.85-28.28-.21-42.85-.21Zm-69.8,44.96c4.42-.87,7.14,.69,9.36,4.28,5.81,9.39,11.63,18.79,18.07,27.74,2.21,3.07,5.98,5.84,9.58,6.9,4.97,1.47,10.46,1.19,15.72,1.66,.27-.46,.54-.91,.81-1.37-.8-.78-1.49-1.73-2.41-2.32-2.09-1.32-4.96-1.95-6.35-3.75-8.72-11.33-17.13-22.9-25.78-34.58,.93-.3,1.19-.4,1.46-.46,9.68-2.28,20.1-9.86,19.25-24.27-.54-9.19-7.5-17.29-19.04-18.43-14.3-1.41-28.77-1.17-43.17-1.64l-.52,1.41c.87,.76,1.63,1.91,2.64,2.23,5.31,1.66,6.8,3.07,6.82,8.35,.09,20.8,.07,41.6-.02,62.4-.02,4.39-1.54,7.96-6.6,8.78-.61,.1-1.12,.84-1.68,1.29,.68,.44,1.36,1.27,2.05,1.28,8.99,.14,17.99,.2,26.98,.14,.8,0,1.6-1.06,2.4-1.63-4.64-1.37-9.33-1.58-9.5-7.05-.31-10.21-.09-20.45-.09-30.94Zm-82.39-6.16v-35.47c5.19,0,10.1-.02,15,0,9.71,.04,14.03,2.85,17.34,12.02,1,2.77,2.23,2.63,4.24,1.84-.43-6.04-.85-11.89-1.27-17.75h-57.36l-.5,1.29c1.22,.59,2.38,1.43,3.67,1.73,2.91,.67,4.75,2.21,5.14,5.24,.25,1.94,.62,3.89,.63,5.83,.05,18.55,.06,37.1,0,55.65,0,2.37-.04,4.88-.78,7.07-.61,1.8-2.13,3.41-3.55,4.79-1.1,1.07-2.66,1.66-4.01,2.46,1.79,.33,3.57,.76,5.37,.95,1.53,.16,3.09,.03,4.63,.03,15.18,.04,30.35,.13,45.53,.04,1.39,0,3.83-.91,4-1.76,1.33-6.64,2.23-13.36,3.26-20.05l-1.48-.77c-.82,.98-1.98,1.84-2.39,2.96-2.57,7.14-6.91,12.71-14.54,14.29-5.11,1.06-10.5,1-15.77,1.1-4.39,.08-7.05-2.94-7.21-6.79-.42-10.05-.14-20.12-.14-30.51,4.01,0,7.63,0,11.26,0,8.03,0,10.57,1.89,13.18,9.46,.35,1.03,1.5,1.78,2.28,2.67,.27-.24,.54-.47,.81-.71v-25.57c-.34-.22-.69-.45-1.03-.67-.74,.89-1.83,1.66-2.15,2.68-1.44,4.58-4.23,7.62-9.14,7.87-4.89,.25-9.81,.06-15.02,.06Zm-63.02-39.52c-.3,.43-.61,.86-.91,1.29,1.12,.64,2.16,1.57,3.37,1.87,4.44,1.13,6.44,3.77,5.71,8.24-.38,2.32-.87,4.69-1.73,6.86-4.91,12.43-9.94,24.81-14.96,37.19-1.5,3.69-3.13,7.33-4.87,11.38-4.42-10.88-8.63-21.17-12.78-31.48-3.12-7.75-6.38-15.45-9.18-23.31-1.96-5.51-.87-7.22,4.18-9.18,.88-.34,1.48-1.39,2.89-2.78h-32.46c.53,1.3,.76,2.85,1.27,2.95,6.88,1.31,8.55,7.15,10.74,12.35,9.45,22.46,18.72,45,28.16,67.47,.51,1.2,1.9,2.03,2.89,3.04,.85-.95,2-1.76,2.49-2.86,5.14-11.74,10.17-23.52,15.22-35.29,5.17-12.02,10.2-24.1,15.58-36.03,1.74-3.87,3.72-7.96,8.87-8.71,.58-.08,.93-1.71,1.59-3.01h-26.05Zm355.3,83.84c.23,.48,.47,.95,.7,1.43,9.67,0,19.35,.03,29.02-.06,.85,0,1.7-.83,2.55-1.27-.66-.53-1.34-1.03-1.97-1.59-2.42-2.15-5.64-3.89-7.06-6.58-3.36-6.38-5.96-13.16-8.69-19.86-7.51-18.42-14.91-36.89-22.41-55.31-.37-.9-1.22-1.6-1.85-2.39-.75,.81-1.78,1.49-2.2,2.45-1.46,3.31-2.69,6.71-4.03,10.07-8.12,20.42-16.23,40.84-24.4,61.24-1.86,4.64-4.3,8.82-9.66,10.31-.78,.22-1.31,1.33-1.96,2.03,.82,.32,1.63,.9,2.45,.9,7.02,.05,14.05,.04,21.07-.09,.81-.01,1.61-.87,2.41-1.33-.73-.41-1.41-1.06-2.18-1.2-5.75-1.05-8.03-4.14-6.46-9.84,1.44-5.21,3.65-10.2,5.18-15.39,.68-2.29,1.86-2.71,3.93-2.69,7.73,.08,15.46-.04,23.18,.11,1.14,.02,2.91,.76,3.29,1.64,2.5,5.88,4.89,11.83,6.94,17.88,1.68,4.98,.07,7.24-5.05,8.28-.98,.2-1.88,.83-2.82,1.26Zm-329.33,38.55c-1.86,6.04-3.68,11.97-5.78,18.83-1.78-5.87-3.52-10.59-4.6-15.46-.79-3.58-2.56-4.16-5.64-3.17-1.8,5.97-3.58,11.91-5.65,18.8-1.59-5.71-2.98-10.32-4.13-14.98-.88-3.56-2.61-5.22-6.48-3.75,2.27,7.26,4.65,14.37,6.7,21.59,.98,3.45,2.62,5.01,6.36,3.77,1.75-5.55,3.53-11.19,5.54-17.6,1.8,5.92,3.2,10.87,4.89,15.72,.33,.94,1.77,1.94,2.79,2.05,1.04,.11,2.91-.61,3.17-1.4,2.72-7.99,5.19-16.06,7.82-24.38h-5Zm72.65,12.71c.42-3.21,1.7-6.25,.84-8.47-.75-1.94-3.76-3.82-6.03-4.19-4.06-.67-8.31-.19-12.39-.19v26.07c4.27,0,8.33,.24,12.36-.07,3.56-.28,7.01-1.46,8.06-5.48,.97-3.68-.29-6.59-2.85-7.66Zm225.7,13.35c8.05,.03,13.58-5.33,13.58-13.17,0-7.73-5.71-13.52-13.39-13.57-7.73-.05-13.66,5.72-13.71,13.32-.05,7.67,5.72,13.39,13.52,13.42Zm-73.26-26.23v26.11c3.38,0,6.46,.17,9.52-.03,8.37-.54,14.21-6.22,13.89-13.3-.35-7.64-6.21-12.71-14.78-12.77-2.79-.02-5.58,0-8.63,0Zm-204.9,.18v25.76h18.21l-.19-4.26h-13.43v-6.59h12.45v-4.15h-12.31v-6.74h13.3v-4.02h-18.03Zm114.58,2.87c-4.05-3.1-8.35-4.14-13.12-3.02-3.47,.81-5.84,3.03-6.18,6.55-.33,3.41,1.48,5.92,4.84,7.01,1.98,.64,4.21,.74,5.98,1.71,1.6,.88,2.74,2.62,4.08,3.97-1.72,.89-3.55,2.67-5.13,2.48-2.88-.36-5.61-1.89-8.74-3.06-.48,.69-1.24,1.8-2.07,2.99,4.67,4.51,9.96,5.61,15.94,3.71,3.43-1.09,4.85-3.75,5.03-7.04,.18-3.38-1.86-5.49-4.9-6.55-2.22-.78-4.66-1.02-6.78-1.99-1.33-.61-2.23-2.13-3.33-3.24,1.33-.79,2.7-2.3,3.98-2.23,2.66,.15,5.27,1.14,8.17,1.85,.56-.8,1.36-1.91,2.23-3.14Zm73.25-2.86h-4.98c0,5.21,.15,10.25-.04,15.27-.17,4.42-3.42,7.1-7.51,6.45-3.19-.51-5.01-2.62-5.28-5.7-.46-5.29-.62-10.6-.9-15.96h-4.05c0,5.43-.2,10.62,.05,15.79,.3,6.23,4.75,10.14,11.07,10.19,6.52,.06,11.24-3.89,11.59-10.16,.28-5.17,.06-10.36,.06-15.88Zm-59.13-.04c.16,1.62,.27,2.8,.41,4.25h7.74v21.47h4.86v-21.77h8.14c-.07-1.51-.12-2.68-.18-3.95h-20.96Zm119.6,25.86v-26.04c-1.65,.08-3,.14-4.33,.2v25.84h4.33Z"/><path class="c" d="M429.65,226.97c29.31-.29,54.33,21.04,62.13,48.47,.67,2.35,.44,4.12-1.63,6.16-22.88,22.61-45.55,45.44-68.41,68.06-1.32,1.31-3.99,2.28-5.75,1.95-23.64-4.55-44.28-25.66-48.88-49.69-5.94-31,12.85-62.24,43.3-71.4,6.21-1.87,12.81-2.4,19.24-3.55Z"/><path class="c" d="M493.24,411.65h-107.77c35.64-35.93,71.74-72.34,107.77-108.67v108.67Z"/><path class="c" d="M482.38,464.08c14.57,0,28.75-.65,42.85,.21,11.02,.67,18.22,7.78,19.74,16.87,1.49,8.92-3.51,18.33-12.52,23.27-2.41,1.32-5.05,2.21-7.82,3.39,7.3,10.4,14.5,21.19,22.33,31.51,2.2,2.9,6.23,4.39,9.39,6.57,.95,.66,1.78,1.48,2.66,2.23-.25,.51-.51,1.02-.76,1.53-5.54-.5-11.15-.62-16.61-1.6-5.11-.92-8.37-4.81-11.08-9.03-5.44-8.47-10.97-16.89-16.24-25.46-2.25-3.65-4.95-5.59-9.7-4.45,0,9.99-.18,20.09,.09,30.17,.11,4.01,2.94,6.07,6.91,6.64,1.05,.15,2.02,.92,3.02,1.41-.17,.41-.35,.82-.52,1.24-9.94,0-19.88,.02-29.82-.05-.49,0-.98-.68-1.46-1.04,.48-.52,.86-1.33,1.44-1.51,5.64-1.74,6.76-3.03,6.77-8.76,.04-20.53,.03-41.06,0-61.59-.01-5.92-.73-6.68-6.83-9.2-.85-.35-1.3-1.64-1.84-2.36Zm22.34,41.37c9.62,.47,18.61,.37,24.17-8.75,4.13-6.78,3.58-17.1-.92-23.06-4.78-6.32-14-8.89-23.25-6.43v38.24Z"/><path class="c" d="M412.58,509.03c0,10.49-.22,20.72,.09,30.94,.16,5.46,4.86,5.68,9.5,7.05-.8,.57-1.59,1.62-2.4,1.63-8.99,.07-17.99,0-26.98-.14-.69-.01-1.37-.83-2.05-1.28,.56-.44,1.07-1.19,1.68-1.29,5.06-.81,6.58-4.39,6.6-8.78,.09-20.8,.11-41.6,.02-62.4-.02-5.28-1.51-6.69-6.82-8.35-1.01-.32-1.77-1.47-2.64-2.23l.52-1.41c14.4,.47,28.86,.23,43.17,1.64,11.53,1.14,18.49,9.24,19.04,18.43,.85,14.41-9.56,21.99-19.25,24.27-.27,.06-.53,.17-1.46,.46,8.65,11.67,17.05,23.25,25.78,34.58,1.39,1.8,4.26,2.43,6.35,3.75,.92,.58,1.61,1.53,2.41,2.32-.27,.46-.54,.91-.81,1.37-5.27-.47-10.75-.19-15.72-1.66-3.6-1.06-7.37-3.83-9.58-6.9-6.44-8.95-12.27-18.35-18.07-27.74-2.22-3.59-4.93-5.15-9.36-4.28Zm-.32-3.68c8.99,.67,17.4,.4,23.26-7.56,4.37-5.93,4.67-17.08,.57-23.06-5.83-8.5-14.46-8.97-23.83-7.95v38.57Z"/><path class="c" d="M330.19,502.88c5.22,0,10.13,.2,15.02-.06,4.91-.25,7.71-3.29,9.14-7.87,.32-1.02,1.41-1.79,2.15-2.68,.34,.22,.69,.45,1.03,.67v25.57c-.27,.24-.54,.47-.81,.71-.78-.88-1.92-1.64-2.28-2.67-2.61-7.56-5.15-9.45-13.18-9.46-3.63,0-7.25,0-11.26,0,0,10.38-.28,20.46,.14,30.51,.16,3.85,2.82,6.87,7.21,6.79,5.27-.1,10.65-.04,15.77-1.1,7.63-1.58,11.97-7.16,14.54-14.29,.41-1.13,1.57-1.98,2.39-2.96l1.48,.77c-1.03,6.7-1.93,13.42-3.26,20.05-.17,.85-2.61,1.75-4,1.76-15.18,.09-30.35,0-45.53-.04-1.55,0-3.1,.13-4.63-.03-1.8-.19-3.58-.62-5.37-.95,1.36-.8,2.92-1.39,4.01-2.46,1.42-1.38,2.94-2.99,3.55-4.79,.74-2.2,.78-4.7,.78-7.07,.05-18.55,.04-37.1,0-55.65,0-1.95-.38-3.89-.63-5.83-.39-3.03-2.23-4.57-5.14-5.24-1.29-.3-2.45-1.13-3.67-1.73l.5-1.29h57.36c.42,5.86,.84,11.71,1.27,17.75-2.01,.79-3.24,.93-4.24-1.84-3.31-9.16-7.63-11.98-17.34-12.02-4.9-.02-9.8,0-15,0v35.47Z"/><path class="c" d="M267.17,463.36h26.05c-.66,1.31-1.01,2.93-1.59,3.01-5.16,.75-7.13,4.84-8.87,8.71-5.37,11.93-10.41,24.01-15.58,36.03-5.06,11.77-10.09,23.55-15.22,35.29-.48,1.11-1.64,1.92-2.49,2.86-.98-1-2.38-1.83-2.89-3.04-9.44-22.47-18.71-45-28.16-67.47-2.19-5.2-3.86-11.04-10.74-12.35-.51-.1-.74-1.65-1.27-2.95h32.46c-1.41,1.39-2.01,2.43-2.89,2.78-5.04,1.97-6.14,3.68-4.18,9.18,2.8,7.86,6.06,15.56,9.18,23.31,4.15,10.31,8.36,20.6,12.78,31.48,1.74-4.05,3.37-7.69,4.87-11.38,5.03-12.38,10.05-24.76,14.96-37.19,.86-2.18,1.35-4.54,1.73-6.86,.73-4.48-1.27-7.11-5.71-8.24-1.2-.31-2.25-1.23-3.37-1.87,.3-.43,.61-.86,.91-1.29Z"/><path class="c" d="M622.48,547.19c.94-.43,1.83-1.06,2.82-1.26,5.12-1.04,6.74-3.3,5.05-8.28-2.05-6.05-4.44-12-6.94-17.88-.37-.88-2.15-1.62-3.29-1.64-7.73-.14-15.45-.03-23.18-.11-2.07-.02-3.25,.4-3.93,2.69-1.53,5.19-3.75,10.18-5.18,15.39-1.57,5.7,.71,8.79,6.46,9.84,.77,.14,1.46,.79,2.18,1.2-.8,.46-1.6,1.31-2.41,1.33-7.02,.13-14.05,.14-21.07,.09-.82,0-1.63-.59-2.45-.9,.65-.7,1.18-1.81,1.96-2.03,5.36-1.48,7.8-5.67,9.66-10.31,8.17-20.4,16.28-40.82,24.4-61.24,1.34-3.36,2.57-6.76,4.03-10.07,.42-.95,1.45-1.64,2.2-2.45,.63,.79,1.48,1.49,1.85,2.39,7.5,18.43,14.9,36.89,22.41,55.31,2.73,6.7,5.33,13.48,8.69,19.86,1.42,2.69,4.64,4.43,7.06,6.58,.63,.56,1.31,1.06,1.97,1.59-.85,.44-1.7,1.26-2.55,1.27-9.67,.09-19.35,.06-29.02,.06-.23-.48-.47-.95-.7-1.43Zm-14.21-66.36c-4.42,11.38-8.54,22-12.73,32.8h25.67c-4.28-10.86-8.44-21.39-12.94-32.8Z"/><path class="c" d="M293.15,585.74h5c-2.63,8.32-5.1,16.4-7.82,24.38-.27,.78-2.14,1.5-3.17,1.4-1.02-.1-2.47-1.11-2.79-2.05-1.69-4.85-3.08-9.8-4.89-15.72-2.02,6.41-3.8,12.05-5.54,17.6-3.74,1.25-5.38-.32-6.36-3.77-2.05-7.21-4.43-14.33-6.7-21.59,3.87-1.47,5.6,.18,6.48,3.75,1.15,4.67,2.54,9.27,4.13,14.98,2.07-6.89,3.86-12.82,5.65-18.8,3.08-.99,4.84-.41,5.64,3.17,1.08,4.87,2.81,9.59,4.6,15.46,2.11-6.86,3.93-12.79,5.78-18.83Z"/><path class="c" d="M365.8,598.45c2.56,1.08,3.81,3.98,2.85,7.66-1.06,4.02-4.5,5.2-8.06,5.48-4.02,.32-8.09,.07-12.36,.07v-26.07c4.08,0,8.33-.48,12.39,.19,2.27,.37,5.28,2.25,6.03,4.19,.86,2.22-.42,5.26-.84,8.47Zm-12.97,9.3c3.19-.29,5.98-.27,8.6-.92,1.17-.29,2-1.93,2.99-2.96-1.14-1.04-2.16-2.75-3.45-2.97-2.63-.47-5.4-.14-8.14-.14v6.99Zm-.02-12.03c2.47,0,4.61,.31,6.59-.11,1.23-.27,2.22-1.66,3.32-2.54-.95-1.05-1.75-2.77-2.87-3.02-2.22-.48-4.61-.14-7.05-.14v5.82Z"/><path class="c" d="M591.49,611.8c-7.8-.03-13.57-5.76-13.52-13.42,.05-7.6,5.98-13.37,13.71-13.32,7.68,.05,13.39,5.84,13.39,13.57,0,7.84-5.53,13.21-13.58,13.17Zm0-22.03c-5.26,.02-8.52,3.33-8.55,8.65-.03,5.44,3.5,9.09,8.77,9.09,4.75,0,8.81-4.06,8.84-8.83,.03-4.96-4.01-8.94-9.06-8.91Z"/><path class="c" d="M518.24,585.57c3.05,0,5.84-.02,8.63,0,8.57,.06,14.43,5.13,14.78,12.77,.32,7.08-5.52,12.76-13.89,13.3-3.06,.2-6.14,.03-9.52,.03v-26.11Zm4.35,21.52c4.87,.34,9.56,.78,12.66-3.7,2.17-3.13,2.14-6.59-.13-9.79-2.38-3.36-7.21-4.51-12.54-3.08v16.57Z"/><path class="c" d="M313.34,585.75h18.03v4.02h-13.3v6.74h12.31v4.15h-12.45v6.59h13.43l.19,4.26h-18.21v-25.76Z"/><path class="c" d="M427.92,588.62c-.87,1.23-1.67,2.35-2.23,3.14-2.89-.71-5.51-1.7-8.17-1.85-1.28-.07-2.65,1.44-3.98,2.23,1.1,1.11,2,2.63,3.33,3.24,2.12,.97,4.56,1.22,6.78,1.99,3.04,1.06,5.08,3.16,4.9,6.55-.17,3.29-1.6,5.95-5.03,7.04-5.99,1.89-11.27,.8-15.94-3.71,.82-1.19,1.59-2.29,2.07-2.99,3.13,1.17,5.86,2.7,8.74,3.06,1.58,.2,3.41-1.59,5.13-2.48-1.34-1.36-2.48-3.09-4.08-3.97-1.77-.97-4-1.07-5.98-1.71-3.36-1.09-5.17-3.61-4.84-7.01,.34-3.52,2.71-5.74,6.18-6.55,4.77-1.11,9.07-.07,13.12,3.02Z"/><path class="c" d="M501.17,585.76c0,5.52,.23,10.71-.06,15.88-.35,6.27-5.06,10.22-11.59,10.16-6.32-.05-10.77-3.96-11.07-10.19-.25-5.17-.05-10.36-.05-15.79h4.05c.29,5.36,.44,10.67,.9,15.96,.27,3.08,2.09,5.19,5.28,5.7,4.09,.65,7.34-2.03,7.51-6.45,.19-5.02,.04-10.06,.04-15.27h4.98Z"/><path class="c" d="M442.04,585.72h20.96c.06,1.27,.11,2.44,.18,3.95h-8.14v21.77h-4.86v-21.47h-7.74c-.14-1.45-.25-2.63-.41-4.25Z"/><path class="c" d="M561.64,611.58h-4.33v-25.84c1.33-.06,2.68-.13,4.33-.2v26.04Z"/><path class="b" d="M504.72,505.44v-38.24c9.24-2.46,18.47,.11,23.25,6.43,4.5,5.96,5.06,16.28,.92,23.06-5.56,9.12-14.55,9.21-24.17,8.75Z"/><path class="b" d="M412.26,505.36v-38.57c9.36-1.02,18-.55,23.83,7.95,4.1,5.98,3.8,17.13-.57,23.06-5.86,7.96-14.27,8.24-23.26,7.56Z"/><path class="b" d="M608.27,480.83c4.5,11.4,8.65,21.93,12.94,32.8h-25.67c4.19-10.8,8.31-21.41,12.73-32.8Z"/><path class="b" d="M352.83,607.75v-6.99c2.74,0,5.51-.33,8.14,.14,1.29,.23,2.31,1.94,3.45,2.97-.99,1.03-1.82,2.67-2.99,2.96-2.62,.65-5.41,.63-8.6,.92Z"/><path class="b" d="M352.82,595.72v-5.82c2.44,0,4.83-.34,7.05,.14,1.12,.24,1.92,1.96,2.87,3.02-1.1,.89-2.09,2.28-3.32,2.54-1.98,.43-4.12,.11-6.59,.11Z"/><path class="b" d="M591.5,589.77c5.05-.02,9.1,3.95,9.06,8.91-.03,4.77-4.09,8.82-8.84,8.83-5.27,0-8.79-3.64-8.77-9.09,.03-5.33,3.29-8.63,8.55-8.65Z"/><path class="b" d="M522.59,607.09v-16.57c5.33-1.43,10.16-.27,12.54,3.08,2.27,3.2,2.29,6.66,.13,9.79-3.11,4.48-7.8,4.05-12.66,3.7Z"/></svg>