<?xml version="1.0" encoding="UTF-8"?><svg id="a" xmlns="http://www.w3.org/2000/svg" viewBox="0 0 863 863"><defs><style>.b{fill:#fff;}.c{fill:#263d3d;}</style></defs><path class="b" d="M863,863H0V0H863V863ZM431.16,249.85c-8.95,1.17-18.05,1.65-26.82,3.64-26.19,5.93-47.88,19.69-64.1,40.95-20.18,26.44-27.84,56.53-22.91,89.63,3.62,24.32,14.08,45.37,31,63.03,16.31,17.01,36.29,27.95,59.18,33.57,2.36,.58,3.94-.01,5.73-1.81,42.1-42.23,84.19-84.45,126.56-126.4,4.28-4.24,5.57-7.89,4.19-13.62-5.86-24.36-18.04-45-37.06-61.08-21.69-18.34-47.05-27.57-75.78-27.9Zm116.19,339.38c-.35-68.55,.4-136.71-.41-204.86l-1.18,.04c-68.47,68.08-136.95,136.16-206.02,204.82h207.61Z"/><path class="c" d="M431.16,249.85c28.73,.33,54.09,9.56,75.78,27.9,19.02,16.08,31.2,36.72,37.06,61.08,1.38,5.73,.09,9.39-4.19,13.62-42.37,41.95-84.47,84.17-126.56,126.4-1.79,1.79-3.37,2.39-5.73,1.81-22.89-5.62-42.87-16.55-59.18-33.57-16.93-17.66-27.38-38.7-31-63.03-4.93-33.1,2.73-63.18,22.91-89.63,16.22-21.26,37.91-35.02,64.1-40.95,8.76-1.98,17.87-2.47,26.82-3.64Z"/><path class="c" d="M547.35,589.23h-207.61c69.07-68.67,137.54-136.75,206.02-204.82l1.18-.04c.81,68.15,.07,136.31,.41,204.86Z"/></svg>